<svg xmlns="http://www.w3.org/2000/svg" viewBox="0 0 37.61 35.79"><defs><style>.cls-1{fill:#3d5774;}</style></defs><title>Asset 55</title><g id="Layer_2" data-name="Layer 2"><g id="Layer_1-2" data-name="Layer 1"><path class="cls-1" d="M31.57,25a6.88,6.88,0,0,0,1.7.23,4.61,4.61,0,0,0,2-.43,4,4,0,0,0,2-2.51,4.59,4.59,0,0,0-.69-4.5,3.82,3.82,0,0,0-2.47-1.25,18.85,18.85,0,0,0,0-2.89.94.94,0,0,0-1-.85H3.9a.94.94,0,0,0-1,.84c0,.34-.67,8.26,4.17,13.55a23.49,23.49,0,0,0,3.51,2.61H1.9A1.94,1.94,0,0,0,0,31.48a2.06,2.06,0,0,0,1.26,2.32c2.64.92,11.62,2,15.94,2h0c4.91,0,14.83-.84,18.49-1.93a2.07,2.07,0,0,0,1.35-2.3,2,2,0,0,0-1.87-1.77H26.37A23,23,0,0,0,30,27.1,13.57,13.57,0,0,0,31.57,25Zm3.57,6.85c-3.21.95-12.88,1.82-18.12,1.82h0c-4,0-13.08-1-15.24-1.77A1.36,1.36,0,0,1,2,31.79H35.12S35.14,31.86,35.15,31.85Zm0-12.75a2.7,2.7,0,0,1,.28,2.6,2,2,0,0,1-1,1.29,3.28,3.28,0,0,1-1.89.16,19.73,19.73,0,0,0,1.38-4.64A1.82,1.82,0,0,1,35.13,19.1ZM18.58,29.79h-.11c-4.28,0-7.61-1.28-9.91-3.79-3.36-3.66-3.7-9.21-3.69-11.21H13v2H9.51c-.29,0-.57,0-.76.17a.82.82,0,0,0-.23.71l1.08,7.58a.87.87,0,0,0,.08.26,4,4,0,0,0,7.32,0,1,1,0,0,0,.08-.29l1.08-7.62a.67.67,0,0,0-.23-.63c-.19-.22-.47-.17-.76-.17H15v-2H32.24c0,2-.39,7.49-3.76,11.16C26.17,28.47,22.84,29.79,18.58,29.79ZM16,18.79l-.9,6.14a1.92,1.92,0,0,1-1.79,1A1.89,1.89,0,0,1,11.56,25l-.9-6.19Z"/><path class="cls-1" d="M15.55,10.75a1,1,0,0,0,.66.25,1,1,0,0,0,.7-1.73c-.11-.11-1.06-1.14.18-3.27,2.11-3.62-.1-5.67-.2-5.75A1,1,0,0,0,15.5.32a1,1,0,0,0,0,1.41c.11.11,1.06,1.14-.18,3.27C13.24,8.62,15.45,10.66,15.55,10.75Z"/><path class="cls-1" d="M19.2,10.75a1,1,0,0,0,.66.25,1,1,0,0,0,.7-1.73c-.11-.11-1.06-1.14.18-3.27,2.11-3.62-.1-5.67-.2-5.75a1,1,0,0,0-1.39.07,1,1,0,0,0,0,1.41c.11.11,1.06,1.14-.18,3.27C16.89,8.62,19.1,10.66,19.2,10.75Z"/></g></g></svg>